<?xml version="1.0" encoding="UTF-8" standalone="no"?>
<!-- Created with Inkscape (http://www.inkscape.org/) -->

<svg
   xmlns:dc="http://purl.org/dc/elements/1.1/"
   xmlns:cc="http://creativecommons.org/ns#"
   xmlns:rdf="http://www.w3.org/1999/02/22-rdf-syntax-ns#"
   xmlns:svg="http://www.w3.org/2000/svg"
   xmlns="http://www.w3.org/2000/svg"
   xmlns:sodipodi="http://sodipodi.sourceforge.net/DTD/sodipodi-0.dtd"
   xmlns:inkscape="http://www.inkscape.org/namespaces/inkscape"
   width="320"
   height="320"
   id="svg2"
   version="1.1"
   inkscape:version="0.48.4 r9939"
   sodipodi:docname="vivo.svg"
   inkscape:export-filename="/home/luiz/Dropbox/projetos/chatlinebot/arts/vivo.png"
   inkscape:export-xdpi="288"
   inkscape:export-ydpi="288">
  <defs
     id="defs4" />
  <sodipodi:namedview
     id="base"
     pagecolor="#ffffff"
     bordercolor="#666666"
     borderopacity="1.0"
     inkscape:pageopacity="0.0"
     inkscape:pageshadow="2"
     inkscape:zoom="0.7"
     inkscape:cx="574.32022"
     inkscape:cy="210.2404"
     inkscape:document-units="px"
     inkscape:current-layer="layer1"
     showgrid="false"
     fit-margin-top="0"
     fit-margin-left="0"
     fit-margin-right="0"
     fit-margin-bottom="0"
     inkscape:window-width="1855"
     inkscape:window-height="1056"
     inkscape:window-x="65"
     inkscape:window-y="24"
     inkscape:window-maximized="1" />
  <metadata
     id="metadata7">
    <rdf:RDF>
      <cc:Work
         rdf:about="">
        <dc:format>image/svg+xml</dc:format>
        <dc:type
           rdf:resource="http://purl.org/dc/dcmitype/StillImage" />
        <dc:title></dc:title>
      </cc:Work>
    </rdf:RDF>
  </metadata>
  <g
     inkscape:label="Layer 1"
     inkscape:groupmode="layer"
     id="layer1"
     transform="translate(-45.54266,-38.207811)">
    <path
       style="fill:#7e2595;fill-opacity:1"
       d="m 54.54266,356.67651 c -1.65,-0.73649 -4.35,-2.77342 -6,-4.52652 l -3,-3.18745 0,-150.91767 0,-150.917672 3.5847,-3.58469 c 2.12089,-2.1209 5.18349,-3.95552 7.5,-4.49281 5.18404,-1.20239 291.64656,-1.20239 296.8306,0 2.31585,0.53714 5.37971,2.37218 7.5,4.492 l 3.5847,3.58389 0.28046,43.44274 0.28045,43.442742 -3.08359,-1.07495 c -4.45336,-1.55245 -13.79405,-0.59673 -18.99178,1.9432 -2.46705,1.20555 -8.98554,5.81261 -14.48554,10.23791 -12.30479,9.90044 -18.18953,12.97664 -24.82415,12.97664 l -4.93147,0 0.66019,-4.25 c 0.3631,-2.3375 2.2447,-6.725 4.18133,-9.75 6.78135,-10.59241 8.76162,-15.87314 9.22143,-24.59065 0.77061,-14.61002 -3.2907,-25.896702 -12.70105,-35.297172 -9.61414,-9.60404 -22.54447,-14.53666 -38.10628,-14.53666 -24.68826,0 -43.91432,13.52697 -49.63865,34.924482 -1.96897,7.36 -1.71976,20.17024 0.53321,27.40904 5.20631,16.72791 20.93308,30.57029 38.18035,33.60554 4.6338,0.81548 8.52722,1.4833 8.65204,1.48405 0.12482,7.5e-4 0.97725,1.14648 1.89428,2.54605 1.61184,2.45997 1.57394,2.64217 -1.13843,5.47327 -3.96836,4.14207 -9.88293,5.78179 -27.01367,7.48907 -18.19338,1.81319 -24.64443,3.66828 -29.44284,8.46669 -4.30444,4.30444 -6.02629,9.54093 -6.02629,18.32721 0,10.2243 2.4858,14.73339 10.5,19.0464 3.85923,2.07692 4.9811,2.14329 31.87738,1.88595 20.55007,-0.19662 28.25737,0.0486 29.32309,0.9331 0.79514,0.65991 2.3893,3.02994 3.54258,5.26673 4.33269,8.40327 2.37162,17.90051 -10.61482,51.40644 -8.51606,21.97204 -8.77283,32.06355 -1.00139,39.35685 4.72011,4.42969 11.74357,6.99077 19.30113,7.03808 8.9537,0.0561 13.13367,-1.49281 17.85672,-6.61671 4.58883,-4.97829 7.46068,-11.98959 10.90274,-26.61776 3.52972,-15.00072 6.95782,-25.99478 9.27647,-29.75 1.81177,-2.9343 2.46954,-3.24905 6.7714,-3.24023 5.4021,0.0111 10.5507,2.20689 23.19979,9.89441 4.6393,2.81954 10.1518,5.64078 12.25,6.26942 l 3.81491,1.14298 0,31.30691 0,31.30692 -3.23438,3.68375 c -1.7789,2.02606 -4.68945,4.29172 -6.46788,5.0348 -4.77707,1.99598 -296.32145,1.93171 -300.79774,-0.0663 z m 80.5,-40.80178 c 12.925,-7.7528 24.2875,-14.76984 25.25,-15.59342 2.47082,-2.1142 2.47082,-12.25705 0,-14.38368 -2.53753,-2.18404 -48.88598,-30.55547 -50.98218,-31.20789 -0.9723,-0.30262 -2.25535,-0.22299 -2.85123,0.17696 -2.05732,1.38085 -9.63448,15.21698 -9.0984,16.61397 0.2957,0.77059 8.20774,5.6113 17.58232,10.75714 9.37457,5.14583 17.057,9.60238 17.07208,9.90343 0.0151,0.30106 -6.71663,4.5066 -14.95934,9.34566 -17.7088,10.39632 -20.01325,12.09704 -20.01325,14.77006 0,1.74142 7.60301,11.9341 10.5,14.07641 1.48834,1.10061 2.07339,0.79301 27.5,-14.45864 z m -49.30269,-71.5021 c 7.19934,-4.71719 6.7252,-17.94043 -0.7825,-21.82281 -8.98974,-4.64878 -18.9209,1.25622 -18.91107,11.24439 0.0102,10.40757 10.96975,16.29449 19.69357,10.57842 z m 76.26751,-1.21302 c 1.46111,-2.73011 1.33135,-18.36957 -0.16482,-19.86574 -0.87771,-0.87771 -8.92551,-1.2 -29.96482,-1.2 -27.41547,0 -28.81337,0.0907 -29.8,1.93426 -1.46111,2.73011 -1.33135,18.36957 0.16482,19.86574 0.87771,0.87771 8.92551,1.2 29.96482,1.2 27.41547,0 28.81337,-0.0907 29.8,-1.93426 z m -25.92231,-43.43495 25.45749,-15.3692 0,-6.75146 0,-6.75145 -25.5,-15.82048 c -14.025,-8.70126 -26.50686,-15.84697 -27.73746,-15.87934 -1.53276,-0.0403 -2.98259,1.1222 -4.60336,3.69114 -4.14757,6.57397 -6.65704,12.09425 -6.11069,13.44215 0.29157,0.71932 8.19154,5.51624 17.55551,10.65983 9.36396,5.14358 16.74695,9.64358 16.40665,10 -0.3403,0.35641 -8.13191,5.15396 -17.31469,10.66122 -12.79113,7.67131 -16.77124,10.54051 -17.01785,12.26786 -0.39665,2.77826 9.1679,15.21894 11.70051,15.21894 0.93852,0 13.16228,-6.91614 27.1639,-15.36921 z m 10.29079,-68.00543 c 19.88138,-9.72706 24.36145,-36.930612 8.6667,-52.625362 -6.35945,-6.35945 -13.83333,-9.42435 -23.04776,-9.45147 -6.53739,-0.0192 -8.44142,0.41774 -14.22384,3.26441 -23.31228,11.4766 -24.70683,43.575962 -2.50482,57.655312 8.29957,5.26315 21.69865,5.76152 31.10972,1.15711 z M 126.4668,113.23848 c -4.30663,-1.99796 -7.42414,-6.7841 -7.42414,-11.39786 0,-3.137762 3.83785,-8.852192 7.03001,-10.467442 8.23168,-4.16528 18.24272,1.79492 18.24272,10.861032 0,9.2638 -9.27465,14.98194 -17.84859,11.00427 z m 228.83118,113.20464 c -9.07376,-3.94852 -16.29701,-9.62148 -18.24797,-14.33151 -1.65395,-3.99299 -0.80413,-11.09266 1.75676,-14.6764 1.11671,-1.56274 4.60823,-4.41634 7.75893,-6.34134 3.15071,-1.925 8.59695,-5.37254 12.10276,-7.6612 l 6.3742,-4.16121 0,25.41121 c 0,13.97616 -0.3375,25.39702 -0.75,25.37969 -0.4125,-0.0173 -4.4601,-1.64598 -8.99468,-3.61924 z"
       id="path2996"
       inkscape:connector-curvature="0" />
  </g>
</svg>
